<svg xmlns="http://www.w3.org/2000/svg" viewBox="0 0 100 100">
  <defs>
    <linearGradient id="g1" x1="10%" y1="0%" x2="90%" y2="100%">
      <stop offset="0%" stop-color="#A46C93"/>
      <stop offset="100%" stop-color="#554664"/>
    </linearGradient>
    <linearGradient id="g2" x1="0%" y1="100%" x2="100%" y2="0%">
      <stop offset="0%" stop-color="#878BBF"/>
      <stop offset="100%" stop-color="#A2D2DD"/>
    </linearGradient>
    <radialGradient id="g3" cx="50%" cy="50%" r="50%">
      <stop offset="0%" stop-color="#D8CAD5"/>
      <stop offset="100%" stop-color="#A46C93"/>
    </radialGradient>
  </defs>
  <circle cx="50" cy="50" r="50" fill="#211F1E"/>
  <path d="M 83.00,50.00 C 83.45,50.38 83.90,50.78 84.33,51.20 C 84.76,51.61 85.18,52.04 85.56,52.49 C 85.94,52.93 86.30,53.39 86.62,53.85 C 86.94,54.31 87.23,54.79 87.46,55.26 C 87.70,55.74 87.90,56.23 88.04,56.71 C 88.19,57.19 88.28,57.67 88.33,58.15 C 88.37,58.62 88.36,59.09 88.29,59.55 C 88.23,60.00 88.11,60.45 87.94,60.88 C 87.76,61.30 87.54,61.72 87.26,62.11 C 86.99,62.50 86.66,62.87 86.30,63.21 C 85.93,63.56 85.52,63.88 85.08,64.17 C 84.63,64.47 84.14,64.73 83.64,64.98 C 83.13,65.22 82.59,65.43 82.04,65.63 C 81.49,65.82 80.91,65.98 80.33,66.13 C 79.75,66.27 79.16,66.39 78.58,66.50 C 78.00,66.61 77.41,66.69 76.84,66.77 C 76.27,66.85 75.71,66.91 75.17,66.97 C 74.63,67.04 74.10,67.09 73.61,67.15 C 73.11,67.21 72.64,67.27 72.20,67.34 C 71.76,67.42 71.35,67.49 70.97,67.59 C 70.59,67.69 70.24,67.80 69.93,67.94 C 69.62,68.08 69.34,68.24 69.09,68.43 C 68.84,68.62 68.62,68.84 68.43,69.09 C 68.24,69.34 68.08,69.62 67.94,69.93 C 67.80,70.24 67.69,70.59 67.59,70.97 C 67.49,71.35 67.42,71.76 67.34,72.20 C 67.27,72.64 67.21,73.11 67.15,73.61 C 67.09,74.10 67.04,74.63 66.97,75.17 C 66.91,75.71 66.85,76.27 66.77,76.84 C 66.69,77.41 66.61,78.00 66.50,78.58 C 66.39,79.16 66.27,79.75 66.13,80.33 C 65.98,80.91 65.82,81.49 65.63,82.04 C 65.43,82.59 65.22,83.13 64.98,83.64 C 64.73,84.14 64.47,84.63 64.17,85.08 C 63.88,85.52 63.56,85.93 63.21,86.30 C 62.87,86.66 62.50,86.99 62.11,87.26 C 61.72,87.54 61.30,87.76 60.88,87.94 C 60.45,88.11 60.00,88.23 59.55,88.29 C 59.09,88.36 58.62,88.37 58.15,88.33 C 57.67,88.28 57.19,88.19 56.71,88.04 C 56.23,87.90 55.74,87.70 55.26,87.46 C 54.79,87.23 54.31,86.94 53.85,86.62 C 53.39,86.30 52.93,85.94 52.49,85.56 C 52.04,85.18 51.61,84.76 51.20,84.33 C 50.78,83.90 50.38,83.45 50.00,83.00 C 49.62,82.55 49.25,82.08 48.90,81.63 C 48.54,81.18 48.21,80.72 47.88,80.28 C 47.56,79.85 47.25,79.42 46.95,79.02 C 46.65,78.62 46.36,78.24 46.08,77.90 C 45.80,77.55 45.52,77.23 45.25,76.96 C 44.97,76.68 44.70,76.43 44.42,76.23 C 44.15,76.03 43.87,75.87 43.58,75.75 C 43.29,75.63 43.00,75.55 42.69,75.51 C 42.37,75.47 42.05,75.47 41.71,75.51 C 41.37,75.54 41.02,75.62 40.64,75.72 C 40.26,75.82 39.87,75.96 39.45,76.12 C 39.03,76.27 38.59,76.46 38.13,76.66 C 37.67,76.85 37.19,77.07 36.69,77.28 C 36.19,77.50 35.67,77.73 35.14,77.94 C 34.61,78.16 34.06,78.38 33.50,78.58 C 32.94,78.78 32.37,78.97 31.80,79.13 C 31.22,79.29 30.64,79.44 30.07,79.55 C 29.50,79.66 28.92,79.75 28.36,79.79 C 27.80,79.83 27.24,79.84 26.71,79.81 C 26.18,79.78 25.66,79.71 25.17,79.59 C 24.68,79.48 24.21,79.32 23.78,79.12 C 23.35,78.92 22.95,78.67 22.59,78.39 C 22.22,78.10 21.90,77.78 21.61,77.41 C 21.33,77.05 21.08,76.65 20.88,76.22 C 20.68,75.79 20.52,75.32 20.41,74.83 C 20.29,74.34 20.22,73.82 20.19,73.29 C 20.16,72.76 20.17,72.20 20.21,71.64 C 20.25,71.08 20.34,70.50 20.45,69.93 C 20.56,69.36 20.71,68.78 20.87,68.20 C 21.03,67.63 21.22,67.06 21.42,66.50 C 21.62,65.94 21.84,65.39 22.06,64.86 C 22.27,64.33 22.50,63.81 22.72,63.31 C 22.93,62.81 23.15,62.33 23.34,61.87 C 23.54,61.41 23.73,60.97 23.88,60.55 C 24.04,60.13 24.18,59.74 24.28,59.36 C 24.38,58.98 24.46,58.63 24.49,58.29 C 24.53,57.95 24.53,57.63 24.49,57.31 C 24.45,57.00 24.37,56.71 24.25,56.42 C 24.13,56.13 23.97,55.85 23.77,55.58 C 23.57,55.30 23.32,55.03 23.04,54.75 C 22.77,54.48 22.45,54.20 22.10,53.92 C 21.76,53.64 21.38,53.35 20.98,53.05 C 20.58,52.75 20.15,52.44 19.72,52.12 C 19.28,51.79 18.82,51.46 18.37,51.10 C 17.92,50.75 17.45,50.38 17.00,50.00 C 16.55,49.62 16.10,49.22 15.67,48.80 C 15.24,48.39 14.82,47.96 14.44,47.51 C 14.06,47.07 13.70,46.61 13.38,46.15 C 13.06,45.69 12.77,45.21 12.54,44.74 C 12.30,44.26 12.10,43.77 11.96,43.29 C 11.81,42.81 11.72,42.33 11.67,41.85 C 11.63,41.38 11.64,40.91 11.71,40.45 C 11.77,40.00 11.89,39.55 12.06,39.12 C 12.24,38.70 12.46,38.28 12.74,37.89 C 13.01,37.50 13.34,37.13 13.70,36.79 C 14.07,36.44 14.48,36.12 14.92,35.83 C 15.37,35.53 15.86,35.27 16.36,35.02 C 16.87,34.78 17.41,34.57 17.96,34.37 C 18.51,34.18 19.09,34.02 19.67,33.87 C 20.25,33.73 20.84,33.61 21.42,33.50 C 22.00,33.39 22.59,33.31 23.16,33.23 C 23.73,33.15 24.29,33.09 24.83,33.03 C 25.37,32.96 25.90,32.91 26.39,32.85 C 26.89,32.79 27.36,32.73 27.80,32.66 C 28.24,32.58 28.65,32.51 29.03,32.41 C 29.41,32.31 29.76,32.20 30.07,32.06 C 30.38,31.92 30.66,31.76 30.91,31.57 C 31.16,31.38 31.38,31.16 31.57,30.91 C 31.76,30.66 31.92,30.38 32.06,30.07 C 32.20,29.76 32.31,29.41 32.41,29.03 C 32.51,28.65 32.58,28.24 32.66,27.80 C 32.73,27.36 32.79,26.89 32.85,26.39 C 32.91,25.90 32.96,25.37 33.03,24.83 C 33.09,24.29 33.15,23.73 33.23,23.16 C 33.31,22.59 33.39,22.00 33.50,21.42 C 33.61,20.84 33.73,20.25 33.87,19.67 C 34.02,19.09 34.18,18.51 34.37,17.96 C 34.57,17.41 34.78,16.87 35.02,16.36 C 35.27,15.86 35.53,15.37 35.83,14.92 C 36.12,14.48 36.44,14.07 36.79,13.70 C 37.13,13.34 37.50,13.01 37.89,12.74 C 38.28,12.46 38.70,12.24 39.12,12.06 C 39.55,11.89 40.00,11.77 40.45,11.71 C 40.91,11.64 41.38,11.63 41.85,11.67 C 42.33,11.72 42.81,11.81 43.29,11.96 C 43.77,12.10 44.26,12.30 44.74,12.54 C 45.21,12.77 45.69,13.06 46.15,13.38 C 46.61,13.70 47.07,14.06 47.51,14.44 C 47.96,14.82 48.39,15.24 48.80,15.67 C 49.22,16.10 49.62,16.55 50.00,17.00 C 50.38,17.45 50.75,17.92 51.10,18.37 C 51.46,18.82 51.79,19.28 52.12,19.72 C 52.44,20.15 52.75,20.58 53.05,20.98 C 53.35,21.38 53.64,21.76 53.92,22.10 C 54.20,22.45 54.48,22.77 54.75,23.04 C 55.03,23.32 55.30,23.57 55.58,23.77 C 55.85,23.97 56.13,24.13 56.42,24.25 C 56.71,24.37 57.00,24.45 57.31,24.49 C 57.63,24.53 57.95,24.53 58.29,24.49 C 58.63,24.46 58.98,24.38 59.36,24.28 C 59.74,24.18 60.13,24.04 60.55,23.88 C 60.97,23.73 61.41,23.54 61.87,23.34 C 62.33,23.15 62.81,22.93 63.31,22.72 C 63.81,22.50 64.33,22.27 64.86,22.06 C 65.39,21.84 65.94,21.62 66.50,21.42 C 67.06,21.22 67.63,21.03 68.20,20.87 C 68.78,20.71 69.36,20.56 69.93,20.45 C 70.50,20.34 71.08,20.25 71.64,20.21 C 72.20,20.17 72.76,20.16 73.29,20.19 C 73.82,20.22 74.34,20.29 74.83,20.41 C 75.32,20.52 75.79,20.68 76.22,20.88 C 76.65,21.08 77.05,21.33 77.41,21.61 C 77.78,21.90 78.10,22.22 78.39,22.59 C 78.67,22.95 78.92,23.35 79.12,23.78 C 79.32,24.21 79.48,24.68 79.59,25.17 C 79.71,25.66 79.78,26.18 79.81,26.71 C 79.84,27.24 79.83,27.80 79.79,28.36 C 79.75,28.92 79.66,29.50 79.55,30.07 C 79.44,30.64 79.29,31.22 79.13,31.80 C 78.97,32.37 78.78,32.94 78.58,33.50 C 78.38,34.06 78.16,34.61 77.94,35.14 C 77.73,35.67 77.50,36.19 77.28,36.69 C 77.07,37.19 76.85,37.67 76.66,38.13 C 76.46,38.59 76.27,39.03 76.12,39.45 C 75.96,39.87 75.82,40.26 75.72,40.64 C 75.62,41.02 75.54,41.37 75.51,41.71 C 75.47,42.05 75.47,42.37 75.51,42.69 C 75.55,43.00 75.63,43.29 75.75,43.58 C 75.87,43.87 76.03,44.15 76.23,44.42 C 76.43,44.70 76.68,44.97 76.96,45.25 C 77.23,45.52 77.55,45.80 77.90,46.08 C 78.24,46.36 78.62,46.65 79.02,46.95 C 79.42,47.25 79.85,47.56 80.28,47.88 C 80.72,48.21 81.18,48.54 81.63,48.90 C 82.08,49.25 82.55,49.62 83.00,50.00 Z" fill="url(#g1)" opacity="0.92"/>
  <path d="M 77.92,50.00 C 78.13,50.32 78.32,50.66 78.46,50.99 C 78.60,51.33 78.71,51.67 78.77,52.01 C 78.83,52.35 78.86,52.70 78.84,53.03 C 78.82,53.37 78.75,53.70 78.65,54.03 C 78.55,54.35 78.40,54.67 78.21,54.98 C 78.03,55.28 77.81,55.58 77.55,55.86 C 77.30,56.14 77.00,56.40 76.68,56.65 C 76.37,56.90 76.01,57.14 75.65,57.35 C 75.28,57.57 74.89,57.77 74.49,57.96 C 74.08,58.14 73.66,58.31 73.24,58.46 C 72.82,58.61 72.39,58.75 71.96,58.87 C 71.54,59.00 71.11,59.11 70.70,59.22 C 70.29,59.32 69.88,59.41 69.49,59.51 C 69.10,59.60 68.73,59.68 68.38,59.77 C 68.03,59.86 67.70,59.95 67.39,60.04 C 67.09,60.14 66.81,60.23 66.56,60.35 C 66.30,60.46 66.08,60.58 65.88,60.71 C 65.69,60.85 65.52,61.00 65.37,61.17 C 65.23,61.34 65.12,61.53 65.03,61.74 C 64.93,61.95 64.87,62.18 64.82,62.44 C 64.78,62.69 64.75,62.97 64.74,63.27 C 64.73,63.57 64.73,63.90 64.75,64.24 C 64.76,64.58 64.78,64.95 64.81,65.34 C 64.83,65.72 64.87,66.12 64.89,66.54 C 64.92,66.95 64.94,67.39 64.96,67.82 C 64.97,68.26 64.98,68.71 64.97,69.16 C 64.96,69.60 64.94,70.06 64.90,70.50 C 64.85,70.94 64.80,71.39 64.71,71.82 C 64.63,72.24 64.53,72.66 64.41,73.05 C 64.28,73.45 64.13,73.83 63.96,74.18 C 63.79,74.52 63.59,74.85 63.37,75.14 C 63.15,75.44 62.91,75.70 62.64,75.92 C 62.38,76.15 62.09,76.34 61.79,76.49 C 61.49,76.64 61.17,76.75 60.84,76.82 C 60.51,76.90 60.15,76.93 59.80,76.92 C 59.44,76.92 59.07,76.87 58.70,76.79 C 58.33,76.71 57.95,76.58 57.58,76.44 C 57.21,76.29 56.83,76.10 56.45,75.89 C 56.08,75.68 55.71,75.44 55.35,75.18 C 54.99,74.93 54.64,74.65 54.29,74.36 C 53.95,74.07 53.62,73.76 53.30,73.46 C 52.98,73.15 52.67,72.84 52.37,72.53 C 52.07,72.23 51.79,71.92 51.51,71.63 C 51.24,71.34 50.98,71.06 50.73,70.80 C 50.47,70.54 50.23,70.30 50.00,70.08 C 49.77,69.87 49.54,69.67 49.32,69.51 C 49.10,69.35 48.88,69.21 48.66,69.11 C 48.45,69.01 48.23,68.94 48.01,68.90 C 47.79,68.86 47.57,68.86 47.35,68.88 C 47.12,68.91 46.88,68.97 46.64,69.06 C 46.39,69.14 46.14,69.26 45.88,69.40 C 45.61,69.54 45.33,69.71 45.04,69.89 C 44.75,70.07 44.44,70.28 44.12,70.49 C 43.80,70.70 43.47,70.94 43.12,71.17 C 42.78,71.39 42.41,71.63 42.04,71.86 C 41.67,72.09 41.28,72.33 40.89,72.54 C 40.50,72.76 40.10,72.97 39.69,73.15 C 39.29,73.34 38.87,73.51 38.46,73.65 C 38.06,73.79 37.64,73.92 37.24,74.00 C 36.83,74.09 36.43,74.15 36.04,74.18 C 35.65,74.20 35.27,74.19 34.91,74.15 C 34.55,74.11 34.20,74.03 33.87,73.91 C 33.55,73.80 33.24,73.64 32.96,73.46 C 32.68,73.27 32.42,73.05 32.19,72.80 C 31.96,72.55 31.76,72.26 31.58,71.95 C 31.41,71.64 31.27,71.29 31.15,70.93 C 31.04,70.57 30.95,70.18 30.90,69.78 C 30.84,69.38 30.81,68.96 30.81,68.53 C 30.80,68.11 30.83,67.67 30.87,67.23 C 30.91,66.79 30.98,66.34 31.05,65.90 C 31.13,65.46 31.23,65.01 31.33,64.58 C 31.44,64.15 31.55,63.73 31.67,63.32 C 31.78,62.91 31.91,62.51 32.02,62.13 C 32.13,61.75 32.25,61.38 32.35,61.03 C 32.45,60.68 32.54,60.35 32.61,60.04 C 32.68,59.73 32.73,59.44 32.76,59.17 C 32.79,58.89 32.80,58.64 32.78,58.40 C 32.76,58.16 32.72,57.94 32.64,57.73 C 32.56,57.52 32.46,57.33 32.32,57.14 C 32.18,56.96 32.01,56.79 31.82,56.62 C 31.62,56.45 31.39,56.29 31.14,56.13 C 30.88,55.97 30.60,55.81 30.29,55.65 C 29.99,55.49 29.66,55.33 29.31,55.16 C 28.97,54.99 28.60,54.81 28.23,54.63 C 27.86,54.44 27.47,54.25 27.09,54.04 C 26.70,53.83 26.31,53.62 25.93,53.38 C 25.54,53.15 25.16,52.91 24.80,52.65 C 24.43,52.39 24.08,52.12 23.75,51.84 C 23.42,51.55 23.11,51.25 22.83,50.95 C 22.55,50.64 22.30,50.32 22.08,50.00 C 21.87,49.68 21.68,49.34 21.54,49.01 C 21.40,48.67 21.29,48.33 21.23,47.99 C 21.17,47.65 21.14,47.30 21.16,46.97 C 21.18,46.63 21.25,46.30 21.35,45.97 C 21.45,45.65 21.60,45.33 21.79,45.02 C 21.97,44.72 22.19,44.42 22.45,44.14 C 22.70,43.86 23.00,43.60 23.32,43.35 C 23.63,43.10 23.99,42.86 24.35,42.65 C 24.72,42.43 25.11,42.23 25.51,42.04 C 25.92,41.86 26.34,41.69 26.76,41.54 C 27.18,41.39 27.61,41.25 28.04,41.13 C 28.46,41.00 28.89,40.89 29.30,40.78 C 29.71,40.68 30.12,40.59 30.51,40.49 C 30.90,40.40 31.27,40.32 31.62,40.23 C 31.97,40.14 32.30,40.05 32.61,39.96 C 32.91,39.86 33.19,39.77 33.44,39.65 C 33.70,39.54 33.92,39.42 34.12,39.29 C 34.31,39.15 34.48,39.00 34.63,38.83 C 34.77,38.66 34.88,38.47 34.97,38.26 C 35.07,38.05 35.13,37.82 35.18,37.56 C 35.22,37.31 35.25,37.03 35.26,36.73 C 35.27,36.43 35.27,36.10 35.25,35.76 C 35.24,35.42 35.22,35.05 35.19,34.66 C 35.17,34.28 35.13,33.88 35.11,33.46 C 35.08,33.05 35.06,32.61 35.04,32.18 C 35.03,31.74 35.02,31.29 35.03,30.84 C 35.04,30.40 35.06,29.94 35.10,29.50 C 35.15,29.06 35.20,28.61 35.29,28.18 C 35.37,27.76 35.47,27.34 35.59,26.95 C 35.72,26.55 35.87,26.17 36.04,25.82 C 36.21,25.48 36.41,25.15 36.63,24.86 C 36.85,24.56 37.09,24.30 37.36,24.08 C 37.62,23.85 37.91,23.66 38.21,23.51 C 38.51,23.36 38.83,23.25 39.16,23.18 C 39.49,23.10 39.85,23.07 40.20,23.08 C 40.56,23.08 40.93,23.13 41.30,23.21 C 41.67,23.29 42.05,23.42 42.42,23.56 C 42.79,23.71 43.17,23.90 43.55,24.11 C 43.92,24.32 44.29,24.56 44.65,24.82 C 45.01,25.07 45.36,25.35 45.71,25.64 C 46.05,25.93 46.38,26.24 46.70,26.54 C 47.02,26.85 47.33,27.16 47.63,27.47 C 47.93,27.77 48.21,28.08 48.49,28.37 C 48.76,28.66 49.02,28.94 49.27,29.20 C 49.53,29.46 49.77,29.70 50.00,29.92 C 50.23,30.13 50.46,30.33 50.68,30.49 C 50.90,30.65 51.12,30.79 51.34,30.89 C 51.55,30.99 51.77,31.06 51.99,31.10 C 52.21,31.14 52.43,31.14 52.65,31.12 C 52.88,31.09 53.12,31.03 53.36,30.94 C 53.61,30.86 53.86,30.74 54.12,30.60 C 54.39,30.46 54.67,30.29 54.96,30.11 C 55.25,29.93 55.56,29.72 55.88,29.51 C 56.20,29.30 56.53,29.06 56.88,28.83 C 57.22,28.61 57.59,28.37 57.96,28.14 C 58.33,27.91 58.72,27.67 59.11,27.46 C 59.50,27.24 59.90,27.03 60.31,26.85 C 60.71,26.66 61.13,26.49 61.54,26.35 C 61.94,26.21 62.36,26.08 62.76,26.00 C 63.17,25.91 63.57,25.85 63.96,25.82 C 64.35,25.80 64.73,25.81 65.09,25.85 C 65.45,25.89 65.80,25.97 66.13,26.09 C 66.45,26.20 66.76,26.36 67.04,26.54 C 67.32,26.73 67.58,26.95 67.81,27.20 C 68.04,27.45 68.24,27.74 68.42,28.05 C 68.59,28.36 68.73,28.71 68.85,29.07 C 68.96,29.43 69.05,29.82 69.10,30.22 C 69.16,30.62 69.19,31.04 69.19,31.47 C 69.20,31.89 69.17,32.33 69.13,32.77 C 69.09,33.21 69.02,33.66 68.95,34.10 C 68.87,34.54 68.77,34.99 68.67,35.42 C 68.56,35.85 68.45,36.27 68.33,36.68 C 68.22,37.09 68.09,37.49 67.98,37.87 C 67.87,38.25 67.75,38.62 67.65,38.97 C 67.55,39.32 67.46,39.65 67.39,39.96 C 67.32,40.27 67.27,40.56 67.24,40.83 C 67.21,41.11 67.20,41.36 67.22,41.60 C 67.24,41.84 67.28,42.06 67.36,42.27 C 67.44,42.48 67.54,42.67 67.68,42.86 C 67.82,43.04 67.99,43.21 68.18,43.38 C 68.38,43.55 68.61,43.71 68.86,43.87 C 69.12,44.03 69.40,44.19 69.71,44.35 C 70.01,44.51 70.34,44.67 70.69,44.84 C 71.03,45.01 71.40,45.19 71.77,45.37 C 72.14,45.56 72.53,45.75 72.91,45.96 C 73.30,46.17 73.69,46.38 74.07,46.62 C 74.46,46.85 74.84,47.09 75.20,47.35 C 75.57,47.61 75.92,47.88 76.25,48.16 C 76.58,48.45 76.89,48.75 77.17,49.05 C 77.45,49.36 77.70,49.68 77.92,50.00 Z" fill="url(#g2)" opacity="0.9"/>
  <path d="M 68.31,50.00 C 68.23,50.21 68.13,50.42 67.99,50.63 C 67.86,50.83 67.70,51.03 67.52,51.23 C 67.34,51.42 67.14,51.60 66.92,51.78 C 66.70,51.95 66.46,52.12 66.22,52.28 C 65.97,52.44 65.70,52.58 65.44,52.72 C 65.17,52.86 64.89,52.99 64.62,53.11 C 64.35,53.23 64.07,53.34 63.80,53.44 C 63.53,53.54 63.26,53.64 63.00,53.73 C 62.75,53.82 62.50,53.90 62.27,53.99 C 62.04,54.07 61.82,54.15 61.62,54.23 C 61.42,54.31 61.24,54.39 61.07,54.47 C 60.91,54.56 60.77,54.65 60.65,54.74 C 60.53,54.84 60.43,54.94 60.35,55.05 C 60.27,55.16 60.21,55.28 60.18,55.41 C 60.14,55.54 60.12,55.69 60.12,55.84 C 60.12,56.00 60.14,56.17 60.17,56.36 C 60.20,56.54 60.25,56.74 60.31,56.95 C 60.36,57.17 60.43,57.39 60.51,57.63 C 60.58,57.87 60.66,58.13 60.74,58.39 C 60.81,58.65 60.90,58.93 60.97,59.21 C 61.05,59.49 61.12,59.78 61.19,60.07 C 61.25,60.36 61.31,60.67 61.35,60.96 C 61.39,61.26 61.43,61.56 61.44,61.85 C 61.46,62.14 61.46,62.43 61.44,62.71 C 61.42,62.98 61.39,63.26 61.34,63.51 C 61.28,63.76 61.21,64.01 61.12,64.23 C 61.02,64.45 60.91,64.66 60.78,64.84 C 60.65,65.02 60.50,65.19 60.34,65.33 C 60.17,65.46 59.99,65.58 59.79,65.67 C 59.59,65.76 59.38,65.82 59.16,65.86 C 58.93,65.90 58.70,65.91 58.45,65.90 C 58.21,65.89 57.96,65.85 57.70,65.79 C 57.44,65.73 57.18,65.64 56.92,65.54 C 56.66,65.44 56.39,65.32 56.13,65.18 C 55.87,65.05 55.61,64.89 55.36,64.73 C 55.11,64.57 54.86,64.39 54.62,64.22 C 54.38,64.04 54.14,63.85 53.92,63.67 C 53.70,63.49 53.48,63.30 53.27,63.13 C 53.07,62.95 52.87,62.78 52.68,62.62 C 52.49,62.46 52.32,62.31 52.15,62.18 C 51.98,62.04 51.82,61.92 51.66,61.83 C 51.51,61.73 51.36,61.65 51.22,61.59 C 51.08,61.53 50.94,61.50 50.80,61.49 C 50.67,61.47 50.54,61.48 50.40,61.52 C 50.27,61.55 50.14,61.61 50.00,61.69 C 49.86,61.77 49.73,61.87 49.58,61.99 C 49.44,62.11 49.29,62.25 49.13,62.40 C 48.98,62.56 48.81,62.73 48.64,62.91 C 48.47,63.10 48.29,63.29 48.10,63.49 C 47.92,63.69 47.72,63.90 47.51,64.11 C 47.31,64.31 47.09,64.52 46.87,64.72 C 46.65,64.92 46.42,65.13 46.18,65.31 C 45.95,65.50 45.70,65.67 45.46,65.83 C 45.22,65.99 44.96,66.14 44.72,66.26 C 44.47,66.39 44.21,66.49 43.97,66.57 C 43.72,66.65 43.47,66.71 43.24,66.74 C 43.00,66.77 42.76,66.78 42.54,66.76 C 42.32,66.74 42.10,66.69 41.90,66.62 C 41.69,66.54 41.50,66.44 41.33,66.31 C 41.15,66.19 40.99,66.03 40.84,65.86 C 40.70,65.68 40.57,65.48 40.46,65.27 C 40.35,65.05 40.25,64.81 40.18,64.56 C 40.10,64.31 40.04,64.04 40.00,63.76 C 39.96,63.49 39.93,63.20 39.92,62.90 C 39.91,62.61 39.91,62.31 39.92,62.01 C 39.94,61.71 39.97,61.40 40.00,61.11 C 40.03,60.81 40.08,60.51 40.12,60.23 C 40.17,59.94 40.22,59.66 40.27,59.40 C 40.32,59.13 40.37,58.87 40.41,58.63 C 40.46,58.39 40.50,58.16 40.53,57.95 C 40.56,57.73 40.58,57.54 40.59,57.35 C 40.60,57.17 40.59,57.00 40.57,56.85 C 40.55,56.70 40.51,56.56 40.45,56.44 C 40.40,56.31 40.32,56.21 40.23,56.11 C 40.13,56.01 40.01,55.92 39.88,55.84 C 39.74,55.76 39.58,55.70 39.41,55.63 C 39.23,55.57 39.04,55.51 38.82,55.45 C 38.61,55.39 38.38,55.34 38.14,55.28 C 37.89,55.22 37.63,55.17 37.37,55.10 C 37.10,55.04 36.82,54.97 36.54,54.90 C 36.26,54.82 35.97,54.74 35.68,54.65 C 35.40,54.56 35.11,54.46 34.83,54.35 C 34.55,54.24 34.28,54.12 34.02,53.98 C 33.76,53.85 33.51,53.71 33.27,53.56 C 33.04,53.40 32.82,53.24 32.63,53.06 C 32.44,52.89 32.26,52.70 32.12,52.51 C 31.97,52.32 31.85,52.12 31.76,51.92 C 31.66,51.71 31.60,51.50 31.56,51.29 C 31.52,51.08 31.51,50.86 31.54,50.64 C 31.56,50.43 31.61,50.21 31.69,50.00 C 31.77,49.79 31.87,49.58 32.01,49.37 C 32.14,49.17 32.30,48.97 32.48,48.77 C 32.66,48.58 32.86,48.40 33.08,48.22 C 33.30,48.05 33.54,47.88 33.78,47.72 C 34.03,47.56 34.30,47.42 34.56,47.28 C 34.83,47.14 35.11,47.01 35.38,46.89 C 35.65,46.77 35.93,46.66 36.20,46.56 C 36.47,46.46 36.74,46.36 37.00,46.27 C 37.25,46.18 37.50,46.10 37.73,46.01 C 37.96,45.93 38.18,45.85 38.38,45.77 C 38.58,45.69 38.76,45.61 38.93,45.53 C 39.09,45.44 39.23,45.35 39.35,45.26 C 39.47,45.16 39.57,45.06 39.65,44.95 C 39.73,44.84 39.79,44.72 39.82,44.59 C 39.86,44.46 39.88,44.31 39.88,44.16 C 39.88,44.00 39.86,43.83 39.83,43.64 C 39.80,43.46 39.75,43.26 39.69,43.05 C 39.64,42.83 39.57,42.61 39.49,42.37 C 39.42,42.13 39.34,41.87 39.26,41.61 C 39.19,41.35 39.10,41.07 39.03,40.79 C 38.95,40.51 38.88,40.22 38.81,39.93 C 38.75,39.64 38.69,39.33 38.65,39.04 C 38.61,38.74 38.57,38.44 38.56,38.15 C 38.54,37.86 38.54,37.57 38.56,37.29 C 38.58,37.02 38.61,36.74 38.66,36.49 C 38.72,36.24 38.79,35.99 38.88,35.77 C 38.98,35.55 39.09,35.34 39.22,35.16 C 39.35,34.98 39.50,34.81 39.66,34.67 C 39.83,34.54 40.01,34.42 40.21,34.33 C 40.41,34.24 40.62,34.18 40.84,34.14 C 41.07,34.10 41.30,34.09 41.55,34.10 C 41.79,34.11 42.04,34.15 42.30,34.21 C 42.56,34.27 42.82,34.36 43.08,34.46 C 43.34,34.56 43.61,34.68 43.87,34.82 C 44.13,34.95 44.39,35.11 44.64,35.27 C 44.89,35.43 45.14,35.61 45.38,35.78 C 45.62,35.96 45.86,36.15 46.08,36.33 C 46.30,36.51 46.52,36.70 46.73,36.87 C 46.93,37.05 47.13,37.22 47.32,37.38 C 47.51,37.54 47.68,37.69 47.85,37.82 C 48.02,37.96 48.18,38.08 48.34,38.17 C 48.49,38.27 48.64,38.35 48.78,38.41 C 48.92,38.47 49.06,38.50 49.20,38.51 C 49.33,38.53 49.46,38.52 49.60,38.48 C 49.73,38.45 49.86,38.39 50.00,38.31 C 50.14,38.23 50.27,38.13 50.42,38.01 C 50.56,37.89 50.71,37.75 50.87,37.60 C 51.02,37.44 51.19,37.27 51.36,37.09 C 51.53,36.90 51.71,36.71 51.90,36.51 C 52.08,36.31 52.28,36.10 52.49,35.89 C 52.69,35.69 52.91,35.48 53.13,35.28 C 53.35,35.08 53.58,34.87 53.82,34.69 C 54.05,34.50 54.30,34.33 54.54,34.17 C 54.78,34.01 55.04,33.86 55.28,33.74 C 55.53,33.61 55.79,33.51 56.03,33.43 C 56.28,33.35 56.53,33.29 56.76,33.26 C 57.00,33.23 57.24,33.22 57.46,33.24 C 57.68,33.26 57.90,33.31 58.10,33.38 C 58.31,33.46 58.50,33.56 58.67,33.69 C 58.85,33.81 59.01,33.97 59.16,34.14 C 59.30,34.32 59.43,34.52 59.54,34.73 C 59.65,34.95 59.75,35.19 59.82,35.44 C 59.90,35.69 59.96,35.96 60.00,36.24 C 60.04,36.51 60.07,36.80 60.08,37.10 C 60.09,37.39 60.09,37.69 60.08,37.99 C 60.06,38.29 60.03,38.60 60.00,38.89 C 59.97,39.19 59.92,39.49 59.88,39.77 C 59.83,40.06 59.78,40.34 59.73,40.60 C 59.68,40.87 59.63,41.13 59.59,41.37 C 59.54,41.61 59.50,41.84 59.47,42.05 C 59.44,42.27 59.42,42.46 59.41,42.65 C 59.40,42.83 59.41,43.00 59.43,43.15 C 59.45,43.30 59.49,43.44 59.55,43.56 C 59.60,43.69 59.68,43.79 59.77,43.89 C 59.87,43.99 59.99,44.08 60.12,44.16 C 60.26,44.24 60.42,44.30 60.59,44.37 C 60.77,44.43 60.96,44.49 61.18,44.55 C 61.39,44.61 61.62,44.66 61.86,44.72 C 62.11,44.78 62.37,44.83 62.63,44.90 C 62.90,44.96 63.18,45.03 63.46,45.10 C 63.74,45.18 64.03,45.26 64.32,45.35 C 64.60,45.44 64.89,45.54 65.17,45.65 C 65.45,45.76 65.72,45.88 65.98,46.02 C 66.24,46.15 66.49,46.29 66.73,46.44 C 66.96,46.60 67.18,46.76 67.37,46.94 C 67.56,47.11 67.74,47.30 67.88,47.49 C 68.03,47.68 68.15,47.88 68.24,48.08 C 68.34,48.29 68.40,48.50 68.44,48.71 C 68.48,48.92 68.49,49.14 68.46,49.36 C 68.44,49.57 68.39,49.79 68.31,50.00 Z" fill="url(#g3)"/>
</svg>